# xmcd
#
# Track frame offsets:
#	150
#	14521
#	25505
#	44383
#	54407
#	72163
#	90138
#	102584
#	115388
#	125677
#	133226
#	136648
#	141135
#
# Disc length: 1925 seconds
#
# Revision: 0
# Processed by: cddbd v1.5.1PL2 Copyright (c) Steve Scherf et al.
# Submitted via: audiograbber 1.83.01
#
DISCID=b007830d
DTITLE=Various Artist - CSD 2006
DYEAR=2006
DGENRE=Verschiedene
TTITLE0=Simon and his Office Orchestra - Tokyo Baby
TTITLE1=Simon and his Office Orchestra - Bangkok Rock n´Roll
TTITLE2=Jodie - Long Tall Texan
TTITLE3=Simon - Rubberneckin
TTITLE4=Henry Eye - One Night Stand
TTITLE5=Jensen Riemann - Ganz und gar
TTITLE6=Domenico DeAngel - Mi Peacerebbe Andare Al Mare
TTITLE7=Die Schwarzbrenner - Geld, Liebe, Euro
TTITLE8=Marc Döring - Leise rieselt der Schnee
TTITLE9=Zündholz - Der Zigeunerbaron
TTITLE10=Scott McFadden - Hymne der A-Vernunft
TTITLE11=Daniel Wichartz - Speech to the people of Georgia
TTITLE12=Scott McFadden - Hymne der A-Vernunft ( doppelter Scott on the Rocks -
TTITLE12=Version
EXTD=
EXTT0=
EXTT1=
EXTT2=
EXTT3=
EXTT4=
EXTT5=
EXTT6=
EXTT7=
EXTT8=
EXTT9=
EXTT10=
EXTT11=
EXTT12=
PLAYORDER=
